<svg width="108" height="108" viewBox="0 0 108 108" fill="none" xmlns="http://www.w3.org/2000/svg">
<path d="M90 54.0002V75.0243C90 84.2053 90 88.7959 87.1478 91.6481C84.2956 94.5002 79.7051 94.5002 70.5241 94.5002H29.25C23.0368 94.5002 18 89.4634 18 83.2502V83.2502C18 77.037 23.0368 72.0002 29.25 72.0002H70.5241C79.7051 72.0002 84.2956 72.0002 87.1478 69.1481C90 66.2959 90 61.7053 90 52.5243V32.9762C90 23.7952 90 19.2046 87.1478 16.3524C84.2956 13.5002 79.7051 13.5002 70.5241 13.5002H37.476C28.2949 13.5002 23.7044 13.5002 20.8522 16.3524C18 19.2046 18 23.7952 18 32.9762V83.2502" stroke="black" stroke-width="9.73798"/>
<path d="M40.4999 35.9998L67.4999 35.9998" stroke="black" stroke-width="9.73798" stroke-linecap="round"/>
</svg>
