<svg width="159" height="159" viewBox="0 0 159 159" fill="none" xmlns="http://www.w3.org/2000/svg">
<path d="M99.8369 36.9103C102.116 37.0323 103.907 38.0428 105.311 39.1134C106.695 40.1696 108.178 41.6679 109.704 43.1935L115.807 49.296L116.939 50.4318C118.054 51.5575 119.095 52.6513 119.887 53.6896C121.029 55.1863 122.103 57.1241 122.103 59.6251C122.103 62.1262 121.029 64.064 119.887 65.5607C119.095 66.5989 118.054 67.6928 116.939 68.8185L115.807 69.9542L64.3574 121.403C63.7505 122.001 63.0287 122.662 62.1709 123.188L61.9336 123.327C60.9705 123.873 59.9359 124.184 59.0361 124.416L58.1894 124.628L38.2422 129.614C37.5221 129.794 36.4432 130.077 35.497 130.17C34.5221 130.265 32.4265 130.299 30.664 128.669L30.4941 128.506C28.6985 126.71 28.7316 124.509 28.83 123.503C28.9226 122.557 29.2057 121.478 29.3857 120.758L34.372 100.811L34.584 99.964C34.8162 99.0642 35.1275 98.0296 35.6728 97.0665L35.8125 96.8292C36.5296 95.6594 37.4967 94.7417 38.2138 94.0245L38.2666 93.9728L89.0459 43.1935L90.1816 42.0607C91.3073 40.9462 92.4012 39.9056 93.4394 39.1134C94.9361 37.9715 96.8739 36.8976 99.375 36.8976L99.8369 36.9103Z" stroke="black" stroke-width="9.73798"/>
<path d="M82.8125 49.6877L102.687 36.4377L122.562 56.3127L109.312 76.1877L82.8125 49.6877Z" fill="black"/>
</svg>
