<svg width="136" height="136" viewBox="0 0 136 136" fill="none" xmlns="http://www.w3.org/2000/svg">
<path d="M57.4813 37.5567C61.9388 26.4443 64.1675 20.8882 68 20.8882C71.8325 20.8882 74.0612 26.4443 78.5187 37.5567L78.7262 38.0741C81.2444 44.352 82.5035 47.491 85.0697 49.3989C87.6358 51.3068 91.0044 51.6085 97.7416 52.2119L98.9596 52.3209C109.986 53.3084 115.499 53.8022 116.679 57.3098C117.858 60.8173 113.764 64.5423 105.576 71.9922L102.843 74.4786C98.6974 78.2498 96.6248 80.1355 95.6588 82.6069C95.4786 83.0679 95.3288 83.5402 95.2103 84.0208C94.5753 86.5972 95.1823 89.3327 96.3961 94.8037L96.7739 96.5066C99.0048 106.561 100.12 111.588 98.1727 113.757C97.4449 114.567 96.4991 115.151 95.4484 115.437C92.6366 116.205 88.6446 112.952 80.6605 106.446C75.4178 102.174 72.7965 100.038 69.7869 99.5572C68.6031 99.3682 67.3968 99.3682 66.213 99.5572C63.2035 100.038 60.5821 102.174 55.3395 106.446C47.3554 112.952 43.3634 116.205 40.5516 115.437C39.5009 115.151 38.5551 114.567 37.8273 113.757C35.8798 111.588 36.9952 106.561 39.2261 96.5066L39.6039 94.8037C40.8177 89.3327 41.4247 86.5972 40.7897 84.0208C40.6712 83.5402 40.5214 83.0679 40.3412 82.6069C39.3752 80.1355 37.3026 78.2498 33.1574 74.4786L30.4245 71.9922C22.2359 64.5423 18.1416 60.8173 19.3213 57.3098C20.501 53.8022 26.0141 53.3084 37.0404 52.3209L38.2584 52.2119C44.9956 51.6085 48.3641 51.3068 50.9303 49.3989C53.4964 47.491 54.7556 44.352 57.2738 38.0741L57.4813 37.5567Z" stroke="black" stroke-width="9.73798"/>
</svg>
